<svg xmlns="http://www.w3.org/2000/svg" width="676.80419921875" height="415.3735046386719" viewBox="-438.5241394042969 -138.95846557617188 676.80419921875 415.3735046386719"><title>Neo4j Graph Visualization</title><desc>Created using Neo4j (http://www.neo4j.com/)</desc><g class="layer relationships"><g class="relationship" transform="translate(-371.86902119702063 -102.45846716033375) rotate(442.58272555738455)"><path class="outline" fill="#4C8EDA" stroke="none" d="M 32.5 0.5 L 113.9679247820377 0.5 L 113.9679247820377 -0.5 L 32.5 -0.5 Z M 149.3038622820377 0.5 L 230.7717870640754 0.5 L 230.7717870640754 3.5 L 237.7717870640754 0 L 230.7717870640754 -3.5 L 230.7717870640754 -0.5 L 149.3038622820377 -0.5 Z"/><text text-anchor="middle" pointer-events="none" font-size="8px" fill="#000000" x="131.6358935320377" y="3" font-family="sans-serif">REFINA</text></g><g class="relationship" transform="translate(-371.86902119702063 -102.45846716033375) rotate(377.4799843621508)"><path class="outline" fill="#57C7E3" stroke="none" d="M 32.5 0.5 L 142.16338908472372 0.5 L 142.16338908472372 -0.5 L 32.5 -0.5 Z M 180.17120158472372 0.5 L 289.83459066944744 0.5 L 289.83459066944744 3.5 L 296.83459066944744 0 L 289.83459066944744 -3.5 L 289.83459066944744 -0.5 L 180.17120158472372 -0.5 Z"/><text text-anchor="middle" pointer-events="none" font-size="8px" fill="#000000" x="161.16729533472372" y="3" font-family="sans-serif">EXTRAE</text></g><g class="relationship" transform="translate(-89.71695418086307 201.33511108963836) rotate(362.86587845209726)"><path class="outline" fill="#F79767" stroke="none" d="M 40 0.5 L 108.78176624988913 0.5 L 108.78176624988913 -0.5 L 40 -0.5 Z M 168.57082874988913 0.5 L 237.35259499977826 0.5 L 237.35259499977826 3.5 L 244.35259499977826 0 L 237.35259499977826 -3.5 L 237.35259499977826 -0.5 L 168.57082874988913 -0.5 Z"/><text text-anchor="middle" pointer-events="none" font-size="8px" fill="#000000" x="138.67629749988913" y="3" font-family="sans-serif">INCLUIDO_EN</text></g><g class="relationship" transform="translate(-336.0101902576131 172.98900502343673) rotate(366.56533560464595)"><path class="outline" fill="#DA7194" stroke="none" d="M 40 0.5 L 95.45367017625523 0.5 L 95.45367017625523 -0.5 L 40 -0.5 Z M 145.46538892625523 0.5 L 200.91905910251046 0.5 L 200.91905910251046 3.5 L 207.91905910251046 0 L 200.91905910251046 -3.5 L 200.91905910251046 -0.5 L 145.46538892625523 -0.5 Z"/><text text-anchor="middle" pointer-events="none" font-size="8px" fill="#000000" x="120.45952955125523" y="3" font-family="sans-serif">USADO_EN</text></g><g class="relationship" transform="translate(-336.0101902576131 172.98900502343673) rotate(404.5740305810152)"><path class="outline" fill="#F16667" stroke="none" d="M 11.3186876303899 38.37821400646021 L 21.671449434490732 77.01524705802294 A 22.435935394489817 22.435935394489817 0 1 1 -21.671449434490732 77.01524705802294 L -13.389239991210065 46.105620616772754 L -8.559610859764723 47.39971584228536 L -10.352761804100831 38.63703305156273 L -16.287017470077267 45.329163481465194 L -11.457388338631928 46.62325870697779 L -19.739597781912593 77.53288514822798 A 20.435935394489817 20.435935394489817 0 1 0 19.739597781912593 77.53288514822798 L 9.386835977811764 38.89585209666525 Z"/><text text-anchor="middle" pointer-events="none" font-size="8px" fill="#000000" x="0" y="114.25802982729645" font-family="sans-serif">NECESITA_DE</text></g><g class="relationship" transform="translate(-50.58879821319884 -1.2825817383619125) rotate(263.03636364407066)"><path class="outline" fill="#F16667" stroke="none" d="M 11.3186876303899 38.37821400646021 L 21.671449434490732 77.01524705802294 A 22.435935394489817 22.435935394489817 0 1 1 -21.671449434490732 77.01524705802294 L -13.389239991210065 46.105620616772754 L -8.559610859764723 47.39971584228536 L -10.352761804100831 38.63703305156273 L -16.287017470077267 45.329163481465194 L -11.457388338631928 46.62325870697779 L -19.739597781912593 77.53288514822798 A 20.435935394489817 20.435935394489817 0 1 0 19.739597781912593 77.53288514822798 L 9.386835977811764 38.89585209666525 Z"/><text text-anchor="middle" pointer-events="none" font-size="8px" fill="#000000" x="0" y="114.25802982729645" transform="rotate(180 0 111.25802982729645)" font-family="sans-serif">NECESITA_DE</text></g><g class="relationship" transform="translate(-336.0101902576131 172.98900502343673) rotate(328.5927429259905)"><path class="outline" fill="#F16667" stroke="none" d="M 38.37821400646021,11.318687630389897 L 38.89585209666525,9.386835977811762 A 491.6987190764587 491.6987190764587 0 0 0 132.78057154761905,25.006972941533434 L 132.6448125057357,27.002359992345077 A 493.6987190764587 493.6987190764587 0 0 1 38.37821400646021,11.318687630389897 Z M 193.7050309585835,27.371875609388837 L 193.59343177937578,25.374991630986415 A 491.6987190764587 491.6987190764587 0 0 0 287.6603234412601,10.892273715451466 L 286.9189946131722,7.985311113585768 L 295.6593333222646,9.884384374505593 L 288.8958714880733,15.737211385227633 L 288.15454265998534,12.830248783361935 A 493.6987190764587 493.6987190764587 0 0 1 193.7050309585835,27.371875609388837"/><text text-anchor="middle" pointer-events="none" font-size="8px" fill="#000000" x="163.17525503306206" y="30.132041844731248" font-family="sans-serif">NECESITA_DE</text></g><g class="relationship" transform="translate(-50.58879821319884 -1.2825817383619125) rotate(508.5927429259905)"><path class="outline" fill="#F16667" stroke="none" d="M 38.37821400646021,11.318687630389897 L 38.89585209666525,9.386835977811762 A 491.6987190764587 491.6987190764587 0 0 0 132.78057154761905,25.006972941533434 L 132.6448125057357,27.002359992345077 A 493.6987190764587 493.6987190764587 0 0 1 38.37821400646021,11.318687630389897 Z M 193.7050309585835,27.371875609388837 L 193.59343177937578,25.374991630986415 A 491.6987190764587 491.6987190764587 0 0 0 287.6603234412601,10.892273715451466 L 286.9189946131722,7.985311113585768 L 295.6593333222646,9.884384374505593 L 288.8958714880733,15.737211385227633 L 288.15454265998534,12.830248783361935 A 493.6987190764587 493.6987190764587 0 0 1 193.7050309585835,27.371875609388837"/><text text-anchor="middle" pointer-events="none" font-size="8px" fill="#000000" x="163.17525503306206" y="30.132041844731248" transform="rotate(180 163.17525503306206 27.132041844731248)" font-family="sans-serif">NECESITA_DE</text></g></g><g class="layer nodes"><g class="node" transform="translate(-50.58879821319884,-1.2825817383619125)"><circle class="outline" cx="0" cy="0" r="40" fill="#57C7E3" stroke="#23b3d7" stroke-width="2px"/><text text-anchor="middle" pointer-events="none" font-family="sans-serif" dy="2.5" font-size="40" fill="#2A2C34"/><text text-anchor="middle" pointer-events="none" x="0" y="5" font-size="10px" fill="#2A2C34" font-family="sans-serif"> MaterialB</text></g><g class="node" transform="translate(-89.71695418086307,201.33511108963836)"><circle class="outline" cx="0" cy="0" r="40" fill="#DA7194" stroke="#cc3c6c" stroke-width="2px"/><text text-anchor="middle" pointer-events="none" font-family="sans-serif" dy="2.5" font-size="40" fill="#FFFFFF"/><text text-anchor="middle" pointer-events="none" x="0" y="5" font-size="10px" fill="#FFFFFF" font-family="sans-serif"> GrupoAplicacion</text></g><g class="node" transform="translate(194.28000383290458,215.55221775851555)"><circle class="outline" cx="0" cy="0" r="40" fill="#F79767" stroke="#f36924" stroke-width="2px"/><text text-anchor="middle" pointer-events="none" font-family="sans-serif" dy="2.5" font-size="40" fill="#FFFFFF"/><text text-anchor="middle" pointer-events="none" x="0" y="5" font-size="10px" fill="#FFFFFF" font-family="sans-serif"> SectorAplicacion</text></g><g class="node" transform="translate(-371.86902119702063,-102.45846716033375)"><circle class="outline" cx="0" cy="0" r="32.5" fill="#8DCC93" stroke="#5db665" stroke-width="2px"/><text text-anchor="middle" pointer-events="none" font-family="sans-serif" dy="2.03125" font-size="32.5" fill="#2A2C34"/><text text-anchor="middle" pointer-events="none" x="0" y="5" font-size="10px" fill="#2A2C34" font-family="sans-serif"> Pais</text></g><g class="node" transform="translate(-336.0101902576131,172.98900502343673)"><circle class="outline" cx="0" cy="0" r="40" fill="#4C8EDA" stroke="#2870c2" stroke-width="2px"/><text text-anchor="middle" pointer-events="none" font-family="sans-serif" dy="2.5" font-size="40" fill="#FFFFFF"/><text text-anchor="middle" pointer-events="none" x="0" y="5" font-size="10px" fill="#FFFFFF" font-family="sans-serif"> MaterialREF</text></g></g></svg>